<?xml version="1.0" encoding="UTF-8" standalone="no"?>
<!-- Created with Inkscape (http://www.inkscape.org/) -->

<svg
   width="192"
   height="192"
   viewBox="0 0 50.799999 50.8"
   version="1.1"
   id="svg1"
   xml:space="preserve"
   xmlns:inkscape="http://www.inkscape.org/namespaces/inkscape"
   xmlns:sodipodi="http://sodipodi.sourceforge.net/DTD/sodipodi-0.dtd"
   xmlns="http://www.w3.org/2000/svg"
   xmlns:svg="http://www.w3.org/2000/svg"><sodipodi:namedview
     id="namedview1"
     pagecolor="#505050"
     bordercolor="#ffffff"
     borderopacity="1"
     inkscape:showpageshadow="0"
     inkscape:pageopacity="0"
     inkscape:pagecheckerboard="1"
     inkscape:deskcolor="#505050"
     inkscape:document-units="mm"
     inkscape:export-bgcolor="#00000000" /><defs
     id="defs1"><inkscape:path-effect
       effect="fillet_chamfer"
       id="path-effect2"
       is_visible="true"
       lpeversion="1"
       nodesatellites_param="F,0,0,1,0,0,0,1 @ F,0,0,1,0,0,0,1 @ F,0,0,1,0,0,0,1 @ F,0,0,1,0,0,0,1 @ F,0,0,1,0,0,0,1 @ F,0,0,1,0,0,0,1 @ F,0,0,1,0,0,0,1 @ F,0,0,1,0,0,0,1"
       radius="0"
       unit="px"
       method="auto"
       mode="F"
       chamfer_steps="1"
       flexible="false"
       use_knot_distance="true"
       apply_no_radius="true"
       apply_with_radius="true"
       only_selected="false"
       hide_knots="false" /></defs><path
     style="fill:#292a2d;fill-opacity:1;stroke-width:0.264583"
     id="rect2"
     width="47.1828"
     height="47.445213"
     x="1.7844357"
     y="1.7494551"
     inkscape:path-effect="#path-effect2"
     sodipodi:type="rect"
     d="m 6.822854,1.7494551 h 37.105964 c 2.791283,0 5.038418,2.2471346 5.038418,5.0384183 V 44.15625 c 0,2.791284 -2.247135,5.038418 -5.038418,5.038418 H 6.822854 c -2.7912837,0 -5.0384183,-2.247134 -5.0384183,-5.038418 V 6.7878734 c 0,-2.7912837 2.2471346,-5.0384183 5.0384183,-5.0384183 z"
     ry="5.0384183" /><path
     d="m 31.091777,11.377083 c 3.627844,0 7.255687,0 10.993463,0 0,9.255125 0,18.51025 0,28.045834 -3.627841,0 -7.255684,0 -10.993463,0 0,-9.255125 0,-18.51025 0,-28.045834 z"
     fill="#ff5e00"
     id="path2"
     style="display:inline;stroke-width:0.246166"
     sodipodi:insensitive="true" /><path
     id="rect5"
     style="fill:#ffffff;fill-opacity:1;stroke-width:0.219445"
     d="m 15.209925,12.831775 -3.578594,3.57911 8.683708,8.683707 -8.683708,8.683708 3.578593,3.578593 12.231298,-12.262298 z"
     sodipodi:nodetypes="ccccccc"
     sodipodi:insensitive="true" /></svg>
